<svg xmlns="http://www.w3.org/2000/svg" width="980" height="220" viewBox="0 0 980 220" role="img" aria-label="Design tools card">
  <defs>
    <linearGradient id="bg" x1="0" y1="0" x2="1" y2="1">
      <stop offset="0" stop-color="#eef2fb"/>
      <stop offset="1" stop-color="#e4e9f6"/>
    </linearGradient>
    <filter id="shadow" x="-20%" y="-40%" width="140%" height="180%">
      <feDropShadow dx="14" dy="14" stdDeviation="12" flood-color="#1e2430" flood-opacity="0.18"/>
      <feDropShadow dx="-14" dy="-14" stdDeviation="12" flood-color="#ffffff" flood-opacity="0.85"/>
    </filter>
    <linearGradient id="glass" x1="0" y1="0" x2="1" y2="1">
      <stop offset="0" stop-color="#ffffff" stop-opacity="0.55"/>
      <stop offset="1" stop-color="#ffffff" stop-opacity="0.10"/>
    </linearGradient>
  </defs>

  <rect x="24" y="22" rx="28" ry="28" width="932" height="176" fill="url(#bg)" filter="url(#shadow)"/>
  <rect x="24" y="22" rx="28" ry="28" width="932" height="176" fill="none" stroke="#ffffff" stroke-opacity="0.55"/>

  <g font-family="ui-sans-serif, system-ui, -apple-system, Segoe UI, Roboto, Arial" fill="#2a3140" opacity="0.92">
    <text x="76" y="92" font-size="24" font-weight="800">=AB@C<5=BK 48709=0</text>
    <text x="76" y="124" font-size="16" opacity="0.82">Figma " Photoshop " SolidWorks " CorelDraw</text>
  </g>

  <path d="M652 58c34-18 78-18 116 0 38 18 62 52 52 78-10 26-52 38-100 30-48-8-92-34-92-64 0-18 10-34 24-44z"
        fill="url(#glass)" opacity="0.95"/>

  <g transform="translate(700 84)" fill="none" stroke="#2a3140" stroke-opacity="0.78" stroke-width="2.6" stroke-linecap="round" stroke-linejoin="round">
    <path d="M10 44 22 10h24l12 34H10z"/>
    <path d="M22 10 34 24 46 10" opacity="0.9"/>
    <path d="M24 34h22" opacity="0.9"/>
  </g>
</svg>
