<svg xmlns="http://www.w3.org/2000/svg" width="980" height="220" viewBox="0 0 980 220" role="img" aria-label="Tech stack card">
  <defs>
    <linearGradient id="bg" x1="0" y1="0" x2="1" y2="1">
      <stop offset="0" stop-color="#eef2fb"/>
      <stop offset="1" stop-color="#e4e9f6"/>
    </linearGradient>
    <filter id="shadow" x="-20%" y="-40%" width="140%" height="180%">
      <feDropShadow dx="14" dy="14" stdDeviation="12" flood-color="#1e2430" flood-opacity="0.18"/>
      <feDropShadow dx="-14" dy="-14" stdDeviation="12" flood-color="#ffffff" flood-opacity="0.85"/>
    </filter>
    <linearGradient id="glass" x1="0" y1="0" x2="1" y2="1">
      <stop offset="0" stop-color="#ffffff" stop-opacity="0.55"/>
      <stop offset="1" stop-color="#ffffff" stop-opacity="0.10"/>
    </linearGradient>
  </defs>

  <rect x="24" y="22" rx="28" ry="28" width="932" height="176" fill="url(#bg)" filter="url(#shadow)"/>
  <rect x="24" y="22" rx="28" ry="28" width="932" height="176" fill="none" stroke="#ffffff" stroke-opacity="0.55"/>

  <g font-family="ui-sans-serif, system-ui, -apple-system, Segoe UI, Roboto, Arial" fill="#2a3140" opacity="0.92">
    <text x="76" y="92" font-size="24" font-weight="800">>9 AB5:</text>
    <text x="76" y="124" font-size="16" opacity="0.82">HTML " CSS/SCSS " JS " React " Node/Express " Mongo " tooling</text>
  </g>

  <path d="M640 62c40-24 92-18 126 8 34 26 50 66 28 92-22 26-74 28-122 8-48-20-80-56-62-84 6-10 16-18 30-24z"
        fill="url(#glass)" opacity="0.95"/>
  <g transform="translate(692 86)" fill="none" stroke="#2a3140" stroke-opacity="0.78" stroke-width="2.6" stroke-linecap="round" stroke-linejoin="round">
    <path d="M30 4 40 14 30 24 20 14z"/>
    <path d="M12 14h16M40 14h16" opacity="0.9"/>
    <path d="M30 24v16M30 4v16" opacity="0.9"/>
  </g>
</svg>
